<svg width="345" height="116" viewBox="0 0 345 116" fill="none" xmlns="http://www.w3.org/2000/svg">
<path fill-rule="evenodd" clip-rule="evenodd" d="M179.784 2.25003C178.291 3.48503 174.168 8.99503 170.622 14.495C167.077 19.995 163.236 25.691 162.088 27.153C160.939 28.615 160 30.241 160 30.766C160 31.291 158.615 33.463 156.922 35.594C154.732 38.349 153.014 39.509 150.97 39.612C147.911 39.765 146.412 40.896 143.629 45.152C141.598 48.259 142.638 49.375 146.631 48.373L149.354 47.689L147.054 50.92C145.226 53.487 144.266 54.028 142.377 53.553C140.056 52.971 140 53.112 140 59.476C140 64.045 140.374 65.984 141.25 65.957C142.76 65.911 148.889 57.09 151.393 51.361C153.16 47.316 154.122 46.543 160.75 43.835C162.538 43.104 164 42.203 164 41.831C164 41.104 171.601 38.538 176.5 37.611C178.15 37.299 180.512 36.755 181.75 36.402C183.981 35.767 184 35.851 184 46.239C184 59.373 184.88 66.012 186.714 66.715C187.509 67.02 189.641 65.797 191.566 63.931C195.205 60.404 195.846 57.351 193.979 52.439C193.417 50.962 192.689 46.72 192.361 43.013L191.764 36.273L195.031 35.134C196.828 34.507 200.144 33.991 202.399 33.986C205.729 33.979 207.212 33.303 210.289 30.386C213.404 27.434 213.862 26.533 212.859 25.325C212.094 24.403 210.868 24.106 209.57 24.527C206.763 25.437 197.295 26.983 193 27.233L189.5 27.436L188.24 19.465C187.547 15.082 186.7 9.47003 186.359 6.99503C185.77 2.72303 184.507 -0.0109669 183.128 3.30699e-05C182.782 0.00303307 181.278 1.01503 179.784 2.25003ZM37.817 4.26102C35.791 5.49002 29.716 9.83102 24.317 13.908C18.918 17.986 12.11 23.084 9.188 25.237C-0.655996 32.494 0.777995 34.407 16.301 34.724C29.872 35.002 32.068 35.222 34 36.501C34.825 37.048 36.381 37.948 37.457 38.503C39.888 39.755 41.318 46.027 39.977 49.555C38.508 53.42 36.63 54.896 29.745 57.6C24.122 59.808 9.60199 62.264 8.52699 61.189C8.29099 60.952 8.357 59.462 8.674 57.877C9.166 55.413 8.937 54.995 7.09 54.995C3.787 54.995 0 57.929 0 60.488C0 64.138 2.35001 65.225 9.99001 65.108C26.594 64.856 44.813 57.431 48.153 49.555C50.542 43.923 49.788 40.156 45.562 36.608C42.021 33.635 31.609 30.053 30.304 31.358C30.024 31.638 28.784 31.483 27.548 31.013C26.313 30.544 22.872 30.051 19.901 29.919C9.529 29.458 9.722 28.649 22.161 20.433C34.169 12.5 37.289 11.742 36.96 16.833C36.559 23.032 37.732 23.479 43.285 19.245C48.122 15.557 49.277 9.59804 46.038 5.04804C43.452 1.41604 42.637 1.33802 37.817 4.26102ZM299.478 5.84003C295.757 8.48703 295.264 9.82804 297.25 11.897C298.259 12.948 297.932 13.613 295.557 15.347C288.624 20.407 285.661 23.669 286.355 25.477C286.992 27.139 287.171 27.15 288.85 25.631C289.844 24.731 291.106 23.995 291.654 23.995C292.203 23.995 293.726 22.852 295.038 21.454L297.426 18.913L298.282 21.204C298.753 22.464 299.341 25.07 299.589 26.995C299.836 28.92 300.249 31.17 300.506 31.995C300.764 32.82 300.305 34.784 299.487 36.359C297.76 39.686 297.567 42.61 299.016 43.505C299.575 43.851 299.695 44.665 299.282 45.314C298.869 45.964 298.497 46.72 298.455 46.995C298.413 47.27 298.016 49.97 297.571 52.995C296.081 63.129 290.25 74.278 287.593 72.073C285.55 70.377 281.825 73.666 282.193 76.842C282.444 79.011 282.956 79.446 285 79.229C288.561 78.85 292.009 76.075 295.723 70.6C299.711 64.722 301.126 60.022 303.853 43.595C304.479 39.824 304.699 39.638 310.5 37.988C327.621 33.117 342.502 25.113 343.577 20.196C343.901 18.71 344.313 17.004 344.491 16.404C344.669 15.804 344.509 14.819 344.136 14.215C342.954 12.303 329.955 6.99503 326.454 6.99503C324.606 6.99503 322.06 6.55704 320.797 6.02204C319.534 5.48704 315.003 4.67103 310.728 4.20703C303.377 3.41103 302.768 3.49903 299.478 5.84003ZM242 4.99503C241.175 5.52803 239.375 5.97402 238 5.98502C234.068 6.01702 229.896 9.94504 229.789 13.716C229.732 15.71 228.805 17.769 227.349 19.137C226.057 20.351 225 21.94 225 22.669C225 24.343 228.197 24.398 229.842 22.753C232.63 19.965 233.822 26.145 231.913 33.495C230.908 37.367 227.484 52.904 226.515 57.995C226.253 59.37 225.451 62.52 224.731 64.995C223.653 68.705 222.96 69.549 220.785 69.804C216.279 70.333 213.728 75.879 216.346 79.455C217.584 81.147 218.139 81.253 220.39 80.227C221.826 79.573 223 78.408 223 77.639C223 76.869 223.631 75.716 224.403 75.076C226.884 73.016 230.727 63.638 231.405 57.986C232.621 47.854 234.255 39.505 235.275 38.22C236.673 36.458 239.958 39.439 239.318 41.888C238.866 43.617 243.328 49.995 244.989 49.995C245.436 49.995 250.233 52.693 255.65 55.991C265.246 61.833 268.148 62.822 270.784 61.15C273.521 59.413 268.103 53.995 263.631 53.995C260.218 53.995 255.735 50.12 251.971 43.919C247.292 36.207 246.35 30.44 249.476 28.636C262.741 20.977 269.162 15.331 268.311 12.076C267.716 9.79902 266.739 9.41904 259 8.45304C255.975 8.07504 253.069 7.50803 252.542 7.19303C252.016 6.87803 250.447 6.49902 249.057 6.35102C247.666 6.20202 246.372 5.61203 246.181 5.03803C245.748 3.74003 243.971 3.72203 242 4.99503ZM114.822 8.47003C110.934 11.112 110.408 12.493 109.479 22.495C108.823 29.558 107.922 36.402 107.607 36.72C107.484 36.843 103.473 37.225 98.692 37.568C91.382 38.093 90 37.955 90 36.703C90 32.956 95.254 15.53 96.703 14.47C98.553 13.118 97.877 10.269 95.49 9.35303C94.586 9.00603 91.649 10.273 88.482 12.375C85.484 14.366 82.561 15.995 81.987 15.995C79.655 15.995 68.999 22.129 67.961 24.069C66.555 26.695 67.396 29.017 69.719 28.922C72.025 28.827 77.32 25.718 77.059 24.613C76.852 23.737 82.384 19.995 83.886 19.995C84.736 19.995 84.371 31.802 83.338 37.745C82.8 40.841 82.553 41.001 78.137 41.113C75.586 41.179 72.943 41.16 72.261 41.072C69.713 40.744 67 43.088 67 45.618C67 48.065 67.176 48.142 71.25 47.467C73.587 47.08 76.258 46.365 77.184 45.879C81.343 43.696 81.883 44.576 81.404 52.745C81.154 57.007 80.757 61.685 80.521 63.14C79.934 66.761 83.102 67.556 86.302 64.591C89.198 61.907 90.608 55.165 88.446 54.336C87.53 53.985 87 52.365 87 49.923C87 45.194 88.309 44.36 98.525 42.583C107.57 41.01 107.511 40.923 106.457 54.315C106.06 59.364 105.774 64.374 105.821 65.449C105.868 66.524 105.422 67.986 104.831 68.699C102.897 71.028 105.906 70.168 109.633 67.326C113.323 64.511 117.489 57.595 116.479 55.961C116.151 55.43 115.285 54.995 114.554 54.995C112.97 54.995 112.257 50.994 112.809 45.203C113.18 41.309 113.428 40.995 116.137 40.995C117.747 40.995 120.68 40.32 122.654 39.495C124.629 38.67 127.041 37.995 128.015 37.995C129.777 37.995 131 36.118 131 33.413C131 31.61 128.618 31.635 123.287 33.492C120.953 34.305 117.741 34.693 116.085 34.362C113.356 33.816 113.148 33.492 113.689 30.63C114.015 28.906 114.668 26.737 115.141 25.811C115.613 24.884 116 23.354 116 22.41C116 21.467 117.164 18.316 118.586 15.409C122.67 7.06203 121.114 4.19403 114.822 8.47003ZM328.13 13.89C329.434 14.405 332.065 16.157 333.978 17.783C337.143 20.473 337.323 20.902 335.978 22.54C334.185 24.724 320.329 31.229 313.695 33.002C310.444 33.87 308.562 33.957 307.875 33.27C307.229 32.624 307.116 28.776 307.563 22.679L308.266 13.102L311.383 12.789C316.445 12.281 325.577 12.881 328.13 13.89ZM177 15.489C177 16.246 177.525 18.132 178.166 19.68C178.808 21.228 179.37 22.849 179.416 23.281C179.462 23.714 179.965 24.389 180.533 24.781C181.102 25.174 181.552 27.07 181.533 28.995L181.5 32.495L173 34.703C168.325 35.918 163.495 36.93 162.267 36.953L160.034 36.995L162.119 33.245C163.265 31.183 164.832 28.785 165.601 27.916C166.371 27.048 167 25.792 167 25.126C167 23.862 170.092 19.087 173.377 15.276C175.353 12.984 177 13.081 177 15.489ZM260.744 15.717C261.2 17.097 247.486 26.348 245.067 26.292C244.205 26.271 241.964 27.4 240.088 28.8L236.675 31.344L237.453 28.92C237.881 27.586 238.291 25.483 238.365 24.245C238.439 23.007 238.825 21.995 239.221 21.995C239.618 21.995 240.319 20.533 240.779 18.745C241.524 15.853 242.05 15.46 245.558 15.178C247.726 15.004 249.836 14.533 250.246 14.132C251.403 13.001 260.29 14.343 260.744 15.717ZM110.228 102.225C105.551 104.479 106.261 112.587 111.282 114.257C113.41 114.965 114.698 114.768 116.762 113.416C118.424 112.326 118.974 111.486 118.196 111.227C117.501 110.995 116.294 111.336 115.514 111.983C113.643 113.536 110.261 112.393 109.484 109.944C108.193 105.878 110.575 103.055 114.5 103.998C119.66 105.239 119.62 105.253 117.139 103.071C114.507 100.757 113.525 100.636 110.228 102.225ZM163.58 103.111C160.07 105.872 160.342 110.436 164.186 113.294C166.55 115.051 167.24 115.138 169.936 114.021C171.621 113.323 173 112.357 173 111.874C173 110.641 171.316 110.781 169.042 112.201C167.452 113.194 166.749 113.078 165.056 111.546C162.403 109.145 162.441 106.5 165.155 104.599C166.666 103.541 167.841 103.375 169.089 104.043C172.241 105.73 173.601 105.013 171.139 102.962C168.144 100.467 166.91 100.491 163.58 103.111ZM185.55 103.354C184.148 104.756 183 106.845 183 107.995C183 110.622 187.275 114.995 189.844 114.995C193.163 114.995 196.333 111.628 196.333 108.103C196.333 101.932 189.835 99.07 185.55 103.354ZM44.202 108.245L44.5 114.495L48.425 114.365C52.856 114.219 55 112.13 55 107.959C55 104.342 52.097 101.995 47.624 101.995H43.905L44.202 108.245ZM68.675 102.711C66.81 105.73 64.34 114.087 65.163 114.596C65.698 114.926 66.382 114.251 66.684 113.096C67.425 110.263 71.306 110.351 73.326 113.245C75.547 116.43 75.445 113.671 73.114 107.533C71.287 102.722 69.72 101.02 68.675 102.711ZM86 108.495C86 112.162 86.436 114.995 87 114.995C87.55 114.995 88.005 112.858 88.012 110.245L88.024 105.495L91.13 110.245C92.839 112.858 94.633 114.995 95.118 114.995C95.603 114.995 96 112.07 96 108.495C96 101.294 94.292 99.542 93.807 106.245L93.5 110.495L91.066 106.245C87.486 99.995 86 100.656 86 108.495ZM129.202 108.245L129.5 114.495H132.75C136.309 114.495 137.314 112.688 134.04 112.175C131.076 111.711 131.47 108.995 134.5 108.995C135.875 108.995 137 108.545 137 107.995C137 107.445 135.875 106.995 134.5 106.995C132.944 106.995 132 106.428 132 105.495C132 104.67 132.873 103.995 133.941 103.995C135.009 103.995 136.16 103.545 136.5 102.995C136.874 102.39 135.494 101.995 133.011 101.995H128.905L129.202 108.245ZM207 107.936C207 115.136 208.758 116.993 209.208 110.27L209.528 105.495L211.372 109.745C212.387 112.082 213.601 113.995 214.071 113.995C214.54 113.995 215.803 112.082 216.878 109.745L218.831 105.495L218.916 110.304C219.039 117.347 221 115.119 221 107.936C221 102.834 220.74 101.995 219.16 101.995C217.9 101.995 216.904 103.256 216 105.995C215.274 108.195 214.373 109.995 213.998 109.995C213.623 109.995 212.777 108.195 212.118 105.995C211.25 103.097 210.38 101.995 208.96 101.995C207.233 101.995 207 102.702 207 107.936ZM232 108.435C232 112.142 232.435 114.995 233 114.995C233.55 114.995 234 113.969 234 112.714C234 111.086 234.88 110.101 237.072 109.274C239.64 108.305 240.091 107.653 239.822 105.305C239.541 102.849 239.027 102.456 235.75 102.185L232 101.874V108.435ZM250.538 107.245C249.517 110.132 248.48 113.058 248.234 113.745C247.988 114.433 248.254 114.995 248.826 114.995C249.397 114.995 250.151 114.095 250.5 112.995C250.899 111.738 252.013 110.995 253.5 110.995C254.987 110.995 256.101 111.738 256.5 112.995C257.134 114.993 259 115.806 259 114.084C259 111.781 254.596 101.995 253.559 101.995C252.919 101.995 251.56 104.358 250.538 107.245ZM269.202 108.245C269.542 115.372 271.343 116.684 271.812 110.147L272.125 105.8L275.073 110.45C276.695 113.007 278.467 114.824 279.011 114.488C280.273 113.708 280.317 101.995 279.057 101.995C278.539 101.995 277.977 103.882 277.807 106.188L277.5 110.382L274.736 106.188C270.586 99.893 268.835 100.543 269.202 108.245ZM291.98 105.955C293.091 108.133 294 111.058 294 112.455C294 113.852 294.45 114.995 295 114.995C295.55 114.995 296 113.852 296 112.455C296 111.058 296.909 108.133 298.02 105.955C299.654 102.752 299.763 101.995 298.588 101.995C297.789 101.995 296.849 102.895 296.5 103.995C296.151 105.095 295.476 105.995 295 105.995C294.524 105.995 293.849 105.095 293.5 103.995C293.151 102.895 292.211 101.995 291.412 101.995C290.237 101.995 290.346 102.752 291.98 105.955ZM192.066 104.03C195.086 105.647 194.662 110.736 191.383 112.23C189.072 113.283 188.544 113.15 186.883 111.098C184.514 108.173 184.528 107.467 187 104.995C189.313 102.682 189.485 102.649 192.066 104.03ZM51.989 105.482C53.995 107.898 52.417 111.995 49.481 111.995C47.253 111.995 47 111.587 47 107.995C47 104.749 47.354 103.995 48.878 103.995C49.91 103.995 51.31 104.664 51.989 105.482ZM238 105.495C238 106.328 237.111 106.995 236 106.995C234.889 106.995 234 106.328 234 105.495C234 104.662 234.889 103.995 236 103.995C237.111 103.995 238 104.662 238 105.495ZM254.985 108.245C254.993 108.658 254.55 108.995 254 108.995C253.45 108.995 253.007 107.983 253.015 106.745C253.028 104.926 253.216 104.782 254 105.995C254.533 106.82 254.976 107.832 254.985 108.245ZM71 108.054C71 108.572 70.55 108.995 70 108.995C69.45 108.995 69 108.293 69 107.436C69 106.579 69.45 106.155 70 106.495C70.55 106.835 71 107.536 71 108.054Z" fill="black"/>
</svg>
